<svg width="64" height="64" viewBox="0 0 64 64" fill="none" xmlns="http://www.w3.org/2000/svg">
<mask id="mask0_1179_3702" style="mask-type:alpha" maskUnits="userSpaceOnUse" x="0" y="0" width="64" height="64">
<rect width="64" height="64" fill="#9F0000"/>
</mask>
<g mask="url(#mask0_1179_3702)">
<path fill-rule="evenodd" clip-rule="evenodd" d="M43.8869 39.1615C40.9741 43.6726 37.0117 48.1094 31.9997 52.4718C26.9878 48.1094 23.0254 43.6726 20.1125 39.1615C17.1997 34.6504 15.7433 30.7487 15.7433 27.4564C15.7433 22.5778 17.2878 18.5513 20.3767 15.3769C23.4655 12.2026 27.3399 10.6154 31.9997 10.6154C36.6595 10.6154 40.5339 12.2026 43.6228 15.3769C46.7117 18.5513 48.2561 22.5778 48.2561 27.4564C48.2561 30.7487 46.7997 34.6504 43.8869 39.1615ZM17.8382 40.5461C21.0125 45.341 25.7331 50.5094 31.9997 56.0513C38.2664 50.5094 42.9869 45.341 46.1613 40.5461C49.3356 35.7513 50.9228 31.388 50.9228 27.4564C50.9228 21.8154 49.086 17.1624 45.4125 13.4974C41.7391 9.83247 37.2681 8 31.9997 8C26.7313 8 22.2604 9.83247 18.5869 13.4974C14.9134 17.1624 13.0767 21.8154 13.0767 27.4564C13.0767 31.388 14.6638 35.7513 17.8382 40.5461Z" fill="#9F0000"/>
<path fill-rule="evenodd" clip-rule="evenodd" d="M31.9997 52.4718C37.0117 48.1094 40.9741 43.6726 43.8869 39.1615C46.7997 34.6504 48.2561 30.7487 48.2561 27.4564C48.2561 22.5778 46.7117 18.5513 43.6228 15.3769C40.5339 12.2026 36.6595 10.6154 31.9997 10.6154C27.3399 10.6154 23.4655 12.2026 20.3767 15.3769C17.2878 18.5513 15.7433 22.5778 15.7433 27.4564C15.7433 30.7487 17.1997 34.6504 20.1125 39.1615C23.0254 43.6726 26.9878 48.1094 31.9997 52.4718ZM35.0485 30.014C34.2091 30.8594 33.1959 31.2821 32.0088 31.2821C30.8217 31.2821 29.8054 30.8624 28.9601 30.0231C28.1147 29.1838 27.6921 28.1706 27.6921 26.9835C27.6921 25.7963 28.1117 24.7801 28.951 23.9347C29.7903 23.0894 30.8035 22.6667 31.9907 22.6667C33.1778 22.6667 34.194 23.0863 35.0394 23.9257C35.8847 24.765 36.3074 25.7782 36.3074 26.9653C36.3074 28.1524 35.8877 29.1686 35.0485 30.014Z" fill="#9F0000"/>
<path d="M32.0088 31.2821C33.1959 31.2821 34.2091 30.8594 35.0485 30.014C35.8877 29.1686 36.3074 28.1524 36.3074 26.9653C36.3074 25.7782 35.8847 24.765 35.0394 23.9257C34.194 23.0863 33.1778 22.6667 31.9907 22.6667C30.8035 22.6667 29.7903 23.0894 28.951 23.9347C28.1117 24.7801 27.6921 25.7963 27.6921 26.9835C27.6921 28.1706 28.1147 29.1838 28.9601 30.0231C29.8054 30.8624 30.8217 31.2821 32.0088 31.2821Z" fill="#9F0000"/>
</g>
<mask id="mask1_1179_3702" style="mask-type:alpha" maskUnits="userSpaceOnUse" x="20" y="17" width="24" height="24">
<rect x="20" y="17" width="24" height="24" fill="#D9D9D9"/>
</mask>
<g mask="url(#mask1_1179_3702)">
<path d="M32 38C31.45 38 30.9792 37.8042 30.5875 37.4125C30.1958 37.0208 30 36.55 30 36C30 35.45 30.1958 34.9792 30.5875 34.5875C30.9792 34.1958 31.45 34 32 34C32.55 34 33.0208 34.1958 33.4125 34.5875C33.8042 34.9792 34 35.45 34 36C34 36.55 33.8042 37.0208 33.4125 37.4125C33.0208 37.8042 32.55 38 32 38ZM30 32V20H34V32H30Z" fill="white"/>
</g>
</svg>
