<svg width="80" height="80" viewBox="0 0 80 80" fill="none" xmlns="http://www.w3.org/2000/svg">
<mask id="mask0_1179_3577" style="mask-type:alpha" maskUnits="userSpaceOnUse" x="0" y="0" width="80" height="80">
<rect width="80" height="80" fill="#D9D9D9"/>
</mask>
<g mask="url(#mask0_1179_3577)">
<path fill-rule="evenodd" clip-rule="evenodd" d="M54.859 48.9519C51.218 54.5908 46.265 60.1368 40 65.5898C33.7351 60.1368 28.7821 54.5908 25.141 48.9519C21.5 43.313 19.6795 38.4359 19.6795 34.3205C19.6795 28.2222 21.6101 23.1891 25.4712 19.2212C29.3323 15.2532 34.1752 13.2693 40 13.2693C45.8248 13.2693 50.6677 15.2532 54.5289 19.2212C58.39 23.1891 60.3205 28.2222 60.3205 34.3205C60.3205 38.4359 58.5 43.313 54.859 48.9519ZM22.2981 50.6827C26.2661 56.6763 32.1667 63.1367 40 70.0641C47.8334 63.1367 53.734 56.6763 57.7019 50.6827C61.6699 44.6891 63.6539 39.2351 63.6539 34.3205C63.6539 27.2692 61.3579 21.453 56.766 16.8718C52.1742 12.2906 46.5855 10 40 10C33.4145 10 27.8259 12.2906 23.234 16.8718C18.6421 21.453 16.3462 27.2692 16.3462 34.3205C16.3462 39.2351 18.3302 44.6891 22.2981 50.6827Z" fill="#103200"/>
<path fill-rule="evenodd" clip-rule="evenodd" d="M40 65.5898C46.265 60.1368 51.218 54.5908 54.859 48.9519C58.5 43.313 60.3205 38.4359 60.3205 34.3205C60.3205 28.2222 58.39 23.1891 54.5289 19.2212C50.6677 15.2532 45.8248 13.2693 40 13.2693C34.1752 13.2693 29.3323 15.2532 25.4712 19.2212C21.6101 23.1891 19.6795 28.2222 19.6795 34.3205C19.6795 38.4359 21.5 43.313 25.141 48.9519C28.7821 54.5908 33.7351 60.1368 40 65.5898ZM43.8109 37.5175C42.7618 38.5742 41.4952 39.1026 40.0114 39.1026C38.5275 39.1026 37.2572 38.578 36.2004 37.5288C35.1438 36.4797 34.6154 35.2132 34.6154 33.7293C34.6154 32.2454 35.14 30.9751 36.1891 29.9184C37.2383 28.8617 38.5048 28.3333 39.9887 28.3333C41.4726 28.3333 42.7429 28.8579 43.7996 29.9071C44.8563 30.9562 45.3846 32.2227 45.3846 33.7066C45.3846 35.1905 44.8601 36.4608 43.8109 37.5175Z" fill="#103200"/>
<path d="M40.0114 39.1026C41.4952 39.1026 42.7618 38.5742 43.8109 37.5175C44.8601 36.4608 45.3846 35.1905 45.3846 33.7066C45.3846 32.2227 44.8563 30.9562 43.7996 29.9071C42.7429 28.8579 41.4726 28.3333 39.9887 28.3333C38.5048 28.3333 37.2383 28.8617 36.1891 29.9184C35.14 30.9751 34.6154 32.2454 34.6154 33.7293C34.6154 35.2132 35.1438 36.4797 36.2004 37.5288C37.2572 38.578 38.5275 39.1026 40.0114 39.1026Z" fill="#103200"/>
</g>
<mask id="mask1_1179_3577" style="mask-type:alpha" maskUnits="userSpaceOnUse" x="24" y="19" width="32" height="32">
<rect x="24" y="19" width="32" height="32" fill="#D9D9D9"/>
</mask>
<g mask="url(#mask1_1179_3577)">
<path d="M44.0002 45.6667C41.0224 45.6667 38.5002 44.6333 36.4335 42.5667C34.3668 40.5 33.3335 37.9778 33.3335 35C33.3335 32.0444 34.3668 29.5278 36.4335 27.45C38.5002 25.3722 41.0224 24.3333 44.0002 24.3333C46.9557 24.3333 49.4724 25.3722 51.5502 27.45C53.6279 29.5278 54.6668 32.0444 54.6668 35C54.6668 37.9778 53.6279 40.5 51.5502 42.5667C49.4724 44.6333 46.9557 45.6667 44.0002 45.6667ZM44.0002 43C46.2224 43 48.1113 42.2222 49.6668 40.6667C51.2224 39.1111 52.0002 37.2222 52.0002 35C52.0002 32.7778 51.2224 30.8889 49.6668 29.3333C48.1113 27.7778 46.2224 27 44.0002 27C41.7779 27 39.8891 27.7778 38.3335 29.3333C36.7779 30.8889 36.0002 32.7778 36.0002 35C36.0002 37.2222 36.7779 39.1111 38.3335 40.6667C39.8891 42.2222 41.7779 43 44.0002 43ZM47.0335 39.9667L48.9335 38.0667L45.3335 34.4667V29.6667H42.6668V35.5667L47.0335 39.9667ZM26.6668 31V28.3333H32.0002V31H26.6668ZM25.3335 36.3333V33.6667H32.0002V36.3333H25.3335ZM26.6668 41.6667V39H32.0002V41.6667H26.6668Z" fill="white"/>
</g>
</svg>
