<svg width="64" height="64" viewBox="0 0 64 64" fill="none" xmlns="http://www.w3.org/2000/svg">
<mask id="mask0_1179_3608" style="mask-type:alpha" maskUnits="userSpaceOnUse" x="0" y="0" width="64" height="64">
<rect width="64" height="64" fill="#660000"/>
</mask>
<g mask="url(#mask0_1179_3608)">
<path fill-rule="evenodd" clip-rule="evenodd" d="M43.8869 39.1615C40.9741 43.6726 37.0117 48.1094 31.9997 52.4718C26.9878 48.1094 23.0254 43.6726 20.1125 39.1615C17.1997 34.6504 15.7433 30.7487 15.7433 27.4564C15.7433 22.5778 17.2878 18.5513 20.3767 15.3769C23.4655 12.2026 27.3399 10.6154 31.9997 10.6154C36.6595 10.6154 40.5339 12.2026 43.6228 15.3769C46.7117 18.5513 48.2561 22.5778 48.2561 27.4564C48.2561 30.7487 46.7997 34.6504 43.8869 39.1615ZM17.8382 40.5461C21.0125 45.341 25.7331 50.5094 31.9997 56.0513C38.2664 50.5094 42.9869 45.341 46.1613 40.5461C49.3356 35.7513 50.9228 31.388 50.9228 27.4564C50.9228 21.8154 49.086 17.1624 45.4125 13.4974C41.7391 9.83247 37.2681 8 31.9997 8C26.7313 8 22.2604 9.83247 18.5869 13.4974C14.9134 17.1624 13.0767 21.8154 13.0767 27.4564C13.0767 31.388 14.6638 35.7513 17.8382 40.5461Z" fill="#660000"/>
<path fill-rule="evenodd" clip-rule="evenodd" d="M31.9997 52.4718C37.0117 48.1094 40.9741 43.6726 43.8869 39.1615C46.7997 34.6504 48.2561 30.7487 48.2561 27.4564C48.2561 22.5778 46.7117 18.5513 43.6228 15.3769C40.5339 12.2026 36.6595 10.6154 31.9997 10.6154C27.3399 10.6154 23.4655 12.2026 20.3767 15.3769C17.2878 18.5513 15.7433 22.5778 15.7433 27.4564C15.7433 30.7487 17.1997 34.6504 20.1125 39.1615C23.0254 43.6726 26.9878 48.1094 31.9997 52.4718ZM35.0485 30.014C34.2091 30.8594 33.1959 31.2821 32.0088 31.2821C30.8217 31.2821 29.8054 30.8624 28.9601 30.0231C28.1147 29.1838 27.6921 28.1706 27.6921 26.9835C27.6921 25.7963 28.1117 24.7801 28.951 23.9347C29.7903 23.0894 30.8035 22.6667 31.9907 22.6667C33.1778 22.6667 34.194 23.0863 35.0394 23.9257C35.8847 24.765 36.3074 25.7782 36.3074 26.9653C36.3074 28.1524 35.8877 29.1686 35.0485 30.014Z" fill="#660000"/>
<path d="M32.0088 31.2821C33.1959 31.2821 34.2091 30.8594 35.0485 30.014C35.8877 29.1686 36.3074 28.1524 36.3074 26.9653C36.3074 25.7782 35.8847 24.765 35.0394 23.9257C34.194 23.0863 33.1778 22.6667 31.9907 22.6667C30.8035 22.6667 29.7903 23.0894 28.951 23.9347C28.1117 24.7801 27.6921 25.7963 27.6921 26.9835C27.6921 28.1706 28.1147 29.1838 28.9601 30.0231C29.8054 30.8624 30.8217 31.2821 32.0088 31.2821Z" fill="#660000"/>
</g>
<path d="M31.7273 28V17.0909C31.7273 16.7818 31.8318 16.5227 32.0409 16.3136C32.25 16.1045 32.5091 16 32.8182 16C33.1273 16 33.3864 16.1045 33.5955 16.3136C33.8045 16.5227 33.9091 16.7818 33.9091 17.0909V28H31.7273ZM27.3636 28V18.1818C27.3636 17.8727 27.4682 17.6136 27.6773 17.4045C27.8864 17.1955 28.1455 17.0909 28.4545 17.0909C28.7636 17.0909 29.0227 17.1955 29.2318 17.4045C29.4409 17.6136 29.5455 17.8727 29.5455 18.1818V28H27.3636ZM32.2727 40C29.6909 40 27.5 39.1 25.7 37.3C23.9 35.5 23 33.3091 23 30.7273V20.3636C23 20.0545 23.1045 19.7955 23.3136 19.5864C23.5227 19.3773 23.7818 19.2727 24.0909 19.2727C24.4 19.2727 24.6591 19.3773 24.8682 19.5864C25.0773 19.7955 25.1818 20.0545 25.1818 20.3636V30.7273C25.1818 32.7091 25.8682 34.3864 27.2409 35.7591C28.6136 37.1318 30.2909 37.8182 32.2727 37.8182C34.2545 37.8182 35.9318 37.1318 37.3045 35.7591C38.6773 34.3864 39.3636 32.7091 39.3636 30.7273V26.9091C39.0545 26.9091 38.7955 27.0136 38.5864 27.2227C38.3773 27.4318 38.2727 27.6909 38.2727 28V32.3636H35C34.4 32.3636 33.8864 32.5773 33.4591 33.0045C33.0318 33.4318 32.8182 33.9455 32.8182 34.5455V35.6364H30.6364V34.5455C30.6364 33.3455 31.0636 32.3182 31.9182 31.4636C32.7727 30.6091 33.8 30.1818 35 30.1818H36.0909V19.2727C36.0909 18.9636 36.1955 18.7045 36.4045 18.4955C36.6136 18.2864 36.8727 18.1818 37.1818 18.1818C37.4909 18.1818 37.75 18.2864 37.9591 18.4955C38.1682 18.7045 38.2727 18.9636 38.2727 19.2727V24.9182C38.4545 24.8636 38.6318 24.8182 38.8045 24.7818C38.9773 24.7455 39.1636 24.7273 39.3636 24.7273H41.5455V30.7273C41.5455 33.3091 40.6455 35.5 38.8455 37.3C37.0455 39.1 34.8545 40 32.2727 40Z" fill="white"/>
</svg>
