<svg width="64" height="64" viewBox="0 0 64 64" fill="none" xmlns="http://www.w3.org/2000/svg">
<mask id="mask0_1179_3615" style="mask-type:alpha" maskUnits="userSpaceOnUse" x="0" y="0" width="64" height="64">
<rect width="64" height="64" fill="#4E3E36"/>
</mask>
<g mask="url(#mask0_1179_3615)">
<path fill-rule="evenodd" clip-rule="evenodd" d="M43.8869 39.1615C40.9741 43.6726 37.0117 48.1094 31.9997 52.4718C26.9878 48.1094 23.0254 43.6726 20.1125 39.1615C17.1997 34.6504 15.7433 30.7487 15.7433 27.4564C15.7433 22.5778 17.2878 18.5513 20.3767 15.3769C23.4655 12.2026 27.3399 10.6154 31.9997 10.6154C36.6595 10.6154 40.5339 12.2026 43.6228 15.3769C46.7117 18.5513 48.2561 22.5778 48.2561 27.4564C48.2561 30.7487 46.7997 34.6504 43.8869 39.1615ZM17.8382 40.5461C21.0125 45.341 25.7331 50.5094 31.9997 56.0513C38.2664 50.5094 42.9869 45.341 46.1613 40.5461C49.3356 35.7513 50.9228 31.388 50.9228 27.4564C50.9228 21.8154 49.086 17.1624 45.4125 13.4974C41.7391 9.83247 37.2681 8 31.9997 8C26.7313 8 22.2604 9.83247 18.5869 13.4974C14.9134 17.1624 13.0767 21.8154 13.0767 27.4564C13.0767 31.388 14.6638 35.7513 17.8382 40.5461Z" fill="#4E3E36"/>
<path fill-rule="evenodd" clip-rule="evenodd" d="M31.9997 52.4718C37.0117 48.1094 40.9741 43.6726 43.8869 39.1615C46.7997 34.6504 48.2561 30.7487 48.2561 27.4564C48.2561 22.5778 46.7117 18.5513 43.6228 15.3769C40.5339 12.2026 36.6595 10.6154 31.9997 10.6154C27.3399 10.6154 23.4655 12.2026 20.3767 15.3769C17.2878 18.5513 15.7433 22.5778 15.7433 27.4564C15.7433 30.7487 17.1997 34.6504 20.1125 39.1615C23.0254 43.6726 26.9878 48.1094 31.9997 52.4718ZM35.0485 30.014C34.2091 30.8594 33.1959 31.2821 32.0088 31.2821C30.8217 31.2821 29.8054 30.8624 28.9601 30.0231C28.1147 29.1838 27.6921 28.1706 27.6921 26.9835C27.6921 25.7963 28.1117 24.7801 28.951 23.9347C29.7903 23.0894 30.8035 22.6667 31.9907 22.6667C33.1778 22.6667 34.194 23.0863 35.0394 23.9257C35.8847 24.765 36.3074 25.7782 36.3074 26.9653C36.3074 28.1524 35.8877 29.1686 35.0485 30.014Z" fill="#4E3E36"/>
<path d="M32.0088 31.2821C33.1959 31.2821 34.2091 30.8594 35.0485 30.014C35.8877 29.1686 36.3074 28.1524 36.3074 26.9653C36.3074 25.7782 35.8847 24.765 35.0394 23.9257C34.194 23.0863 33.1778 22.6667 31.9907 22.6667C30.8035 22.6667 29.7903 23.0894 28.951 23.9347C28.1117 24.7801 27.6921 25.7963 27.6921 26.9835C27.6921 28.1706 28.1147 29.1838 28.9601 30.0231C29.8054 30.8624 30.8217 31.2821 32.0088 31.2821Z" fill="#4E3E36"/>
</g>
<mask id="mask1_1179_3615" style="mask-type:alpha" maskUnits="userSpaceOnUse" x="20" y="16" width="24" height="24">
<rect x="20" y="16" width="24" height="24" fill="#D9D9D9"/>
</mask>
<g mask="url(#mask1_1179_3615)">
<path d="M38.85 37.975C38.7167 37.975 38.5917 37.9542 38.475 37.9125C38.3583 37.8708 38.25 37.8 38.15 37.7L33.05 32.6C32.95 32.5 32.8792 32.3917 32.8375 32.275C32.7958 32.1583 32.775 32.0333 32.775 31.9C32.775 31.7667 32.7958 31.6417 32.8375 31.525C32.8792 31.4083 32.95 31.3 33.05 31.2L35.175 29.075C35.275 28.975 35.3833 28.9042 35.5 28.8625C35.6167 28.8208 35.7417 28.8 35.875 28.8C36.0083 28.8 36.1333 28.8208 36.25 28.8625C36.3667 28.9042 36.475 28.975 36.575 29.075L41.675 34.175C41.775 34.275 41.8458 34.3833 41.8875 34.5C41.9292 34.6167 41.95 34.7417 41.95 34.875C41.95 35.0083 41.9292 35.1333 41.8875 35.25C41.8458 35.3667 41.775 35.475 41.675 35.575L39.55 37.7C39.45 37.8 39.3417 37.8708 39.225 37.9125C39.1083 37.9542 38.9833 37.975 38.85 37.975ZM38.85 35.6L39.575 34.875L35.9 31.2L35.175 31.925L38.85 35.6ZM25.125 38C24.9917 38 24.8625 37.975 24.7375 37.925C24.6125 37.875 24.5 37.8 24.4 37.7L22.3 35.6C22.2 35.5 22.125 35.3875 22.075 35.2625C22.025 35.1375 22 35.0083 22 34.875C22 34.7417 22.025 34.6167 22.075 34.5C22.125 34.3833 22.2 34.275 22.3 34.175L27.6 28.875H29.725L30.575 28.025L26.45 23.9H25.025L22 20.875L24.825 18.05L27.85 21.075V22.5L31.975 26.625L34.875 23.725L33.8 22.65L35.2 21.25H32.375L31.675 20.55L35.225 17L35.925 17.7V20.525L37.325 19.125L40.875 22.675C41.1583 22.9583 41.375 23.2792 41.525 23.6375C41.675 23.9958 41.75 24.375 41.75 24.775C41.75 25.175 41.675 25.5583 41.525 25.925C41.375 26.2917 41.1583 26.6167 40.875 26.9L38.75 24.775L37.35 26.175L36.3 25.125L31.125 30.3V32.4L25.825 37.7C25.725 37.8 25.6167 37.875 25.5 37.925C25.3833 37.975 25.2583 38 25.125 38ZM25.125 35.6L29.375 31.35V30.625H28.65L24.4 34.875L25.125 35.6ZM25.125 35.6L24.4 34.875L24.775 35.225L25.125 35.6Z" fill="white"/>
</g>
</svg>
