<svg width="24" height="128" viewBox="0 0 24 128" fill="none" xmlns="http://www.w3.org/2000/svg">
<mask id="mask0_1286_1198" style="mask-type:alpha" maskUnits="userSpaceOnUse" x="0" y="0" width="24" height="24">
<rect width="24" height="24" fill="#4B4B4B"/>
</mask>
<g mask="url(#mask0_1286_1198)">
<path d="M12 22C10.6167 22 9.31667 21.7375 8.1 21.2125C6.88333 20.6875 5.825 19.975 4.925 19.075C4.025 18.175 3.3125 17.1167 2.7875 15.9C2.2625 14.6833 2 13.3833 2 12C2 10.6167 2.2625 9.31667 2.7875 8.1C3.3125 6.88333 4.025 5.825 4.925 4.925C5.825 4.025 6.88333 3.3125 8.1 2.7875C9.31667 2.2625 10.6167 2 12 2C13.3833 2 14.6833 2.2625 15.9 2.7875C17.1167 3.3125 18.175 4.025 19.075 4.925C19.975 5.825 20.6875 6.88333 21.2125 8.1C21.7375 9.31667 22 10.6167 22 12C22 13.3833 21.7375 14.6833 21.2125 15.9C20.6875 17.1167 19.975 18.175 19.075 19.075C18.175 19.975 17.1167 20.6875 15.9 21.2125C14.6833 21.7375 13.3833 22 12 22ZM12 20C14.2333 20 16.125 19.225 17.675 17.675C19.225 16.125 20 14.2333 20 12C20 9.76667 19.225 7.875 17.675 6.325C16.125 4.775 14.2333 4 12 4C9.76667 4 7.875 4.775 6.325 6.325C4.775 7.875 4 9.76667 4 12C4 14.2333 4.775 16.125 6.325 17.675C7.875 19.225 9.76667 20 12 20Z" fill="#461901"/>
</g>
<circle cx="12" cy="34" r="2" fill="#461901"/>
<circle cx="12" cy="54" r="2" fill="#461901"/>
<circle cx="12" cy="74" r="2" fill="#461901"/>
<circle cx="12" cy="94" r="2" fill="#461901"/>
<mask id="mask1_1286_1198" style="mask-type:alpha" maskUnits="userSpaceOnUse" x="0" y="104" width="24" height="24">
<rect y="104" width="24" height="24" fill="#D9D9D9"/>
</mask>
<g mask="url(#mask1_1286_1198)">
<path d="M12 116C12.55 116 13.0208 115.804 13.4125 115.413C13.8042 115.021 14 114.55 14 114C14 113.45 13.8042 112.979 13.4125 112.588C13.0208 112.196 12.55 112 12 112C11.45 112 10.9792 112.196 10.5875 112.588C10.1958 112.979 10 113.45 10 114C10 114.55 10.1958 115.021 10.5875 115.413C10.9792 115.804 11.45 116 12 116ZM12 123.35C14.0333 121.483 15.5417 119.787 16.525 118.262C17.5083 116.738 18 115.383 18 114.2C18 112.383 17.4208 110.896 16.2625 109.737C15.1042 108.579 13.6833 108 12 108C10.3167 108 8.89583 108.579 7.7375 109.737C6.57917 110.896 6 112.383 6 114.2C6 115.383 6.49167 116.738 7.475 118.262C8.45833 119.787 9.96667 121.483 12 123.35ZM12 126C9.31667 123.717 7.3125 121.596 5.9875 119.637C4.6625 117.679 4 115.867 4 114.2C4 111.7 4.80417 109.708 6.4125 108.225C8.02083 106.742 9.88333 106 12 106C14.1167 106 15.9792 106.742 17.5875 108.225C19.1958 109.708 20 111.7 20 114.2C20 115.867 19.3375 117.679 18.0125 119.637C16.6875 121.596 14.6833 123.717 12 126Z" fill="#461901"/>
</g>
</svg>
