<svg width="54" height="32" viewBox="0 0 54 32" fill="none" xmlns="http://www.w3.org/2000/svg">
<path d="M11.1677 0V2.49326H7.24976V12.9912H4.32533V2.49326H0.407349V0H11.1677Z" fill="#FFF7F2"/>
<path d="M10.9815 8.13591C10.9815 7.26108 11.1127 6.49873 11.3751 5.84886C11.6501 5.18649 12.0063 4.63659 12.4437 4.19918C12.8811 3.76177 13.381 3.43058 13.9434 3.20562C14.5183 2.98067 15.1057 2.86819 15.7055 2.86819C17.1053 2.86819 18.2113 3.29936 19.0236 4.16169C19.836 5.01152 20.2421 6.26753 20.2421 7.9297C20.2421 8.09217 20.2359 8.27338 20.2234 8.47334C20.2109 8.66081 20.1984 8.82953 20.1859 8.9795H13.8496C13.9121 9.55438 14.1808 10.0105 14.6557 10.348C15.1306 10.6854 15.768 10.8541 16.5679 10.8541C17.0803 10.8541 17.5802 10.8104 18.0676 10.7229C18.5675 10.6229 18.9736 10.5042 19.2861 10.3667L19.661 12.635C19.511 12.71 19.3111 12.785 19.0611 12.86C18.8112 12.935 18.53 12.9975 18.2175 13.0475C17.9176 13.1099 17.5927 13.1599 17.2427 13.1974C16.8928 13.2349 16.5429 13.2537 16.1929 13.2537C15.3056 13.2537 14.5308 13.1224 13.8684 12.86C13.2185 12.5975 12.6749 12.2414 12.2375 11.7914C11.8125 11.329 11.4939 10.7854 11.2814 10.1605C11.0814 9.53564 10.9815 8.86077 10.9815 8.13591ZM17.5427 7.06737C17.5302 6.82992 17.4864 6.59871 17.4115 6.37376C17.349 6.1488 17.2427 5.94884 17.0928 5.77387C16.9553 5.59891 16.7741 5.45518 16.5491 5.34271C16.3367 5.23023 16.068 5.17399 15.743 5.17399C15.4306 5.17399 15.1619 5.23023 14.9369 5.34271C14.712 5.44269 14.5245 5.58016 14.3745 5.75513C14.2246 5.93009 14.1058 6.1363 14.0184 6.37376C13.9434 6.59871 13.8871 6.82992 13.8496 7.06737H17.5427Z" fill="#FFF7F2"/>
<path d="M21.929 8.06093C21.929 7.34857 22.0415 6.67995 22.2665 6.05507C22.5039 5.41769 22.8413 4.8678 23.2788 4.40539C23.7162 3.93048 24.2473 3.55556 24.8722 3.28061C25.4971 3.00566 26.2094 2.86819 27.0093 2.86819C27.5342 2.86819 28.0153 2.91818 28.4528 3.01816C28.8902 3.10564 29.3151 3.23687 29.7275 3.41183L29.1464 5.64265C28.8839 5.54267 28.5965 5.45518 28.284 5.3802C27.9716 5.30521 27.6217 5.26772 27.2342 5.26772C26.4094 5.26772 25.7908 5.52392 25.3784 6.03632C24.9784 6.54872 24.7785 7.22359 24.7785 8.06093C24.7785 8.94825 24.9659 9.63562 25.3409 10.123C25.7283 10.6104 26.3969 10.8541 27.3467 10.8541C27.6842 10.8541 28.0466 10.8229 28.434 10.7604C28.8214 10.6979 29.1776 10.5979 29.5025 10.4605L29.8962 12.7475C29.5713 12.885 29.1651 13.0037 28.6777 13.1037C28.1903 13.2037 27.6529 13.2537 27.0655 13.2537C26.1657 13.2537 25.3908 13.1224 24.741 12.86C24.0911 12.585 23.5537 12.2164 23.1288 11.754C22.7164 11.2915 22.4102 10.7479 22.2102 10.123C22.0228 9.48565 21.929 8.79828 21.929 8.06093Z" fill="#FFF7F2"/>
<path d="M31.7709 3.46807C32.2458 3.3306 32.8581 3.20562 33.608 3.09315C34.3578 2.96817 35.1452 2.90568 35.97 2.90568C36.8074 2.90568 37.501 3.01816 38.0509 3.24312C38.6133 3.45557 39.0569 3.76177 39.3819 4.16169C39.7068 4.56161 39.938 5.03652 40.0755 5.58641C40.213 6.1363 40.2817 6.74868 40.2817 7.42355V12.9912H37.4885V7.76098C37.4885 6.86116 37.3698 6.22378 37.1323 5.84886C36.8949 5.47393 36.4512 5.28647 35.8013 5.28647C35.6014 5.28647 35.3889 5.29897 35.1639 5.32396C34.939 5.33646 34.739 5.3552 34.5641 5.3802V12.9912H31.7709V3.46807Z" fill="#FFF7F2"/>
<path d="M52.0332 8.04218C52.0332 8.81703 51.9207 9.52939 51.6957 10.1793C51.4708 10.8166 51.1458 11.3665 50.7209 11.8289C50.296 12.2789 49.7836 12.6288 49.1837 12.8787C48.5963 13.1287 47.934 13.2537 47.1966 13.2537C46.4717 13.2537 45.8094 13.1287 45.2095 12.8787C44.6221 12.6288 44.116 12.2789 43.691 11.8289C43.2661 11.3665 42.9349 10.8166 42.6975 10.1793C42.46 9.52939 42.3413 8.81703 42.3413 8.04218C42.3413 7.26733 42.46 6.56122 42.6975 5.92384C42.9474 5.28647 43.2849 4.74282 43.7098 4.29291C44.1472 3.843 44.6596 3.49307 45.247 3.24312C45.8469 2.99317 46.4967 2.86819 47.1966 2.86819C47.909 2.86819 48.5588 2.99317 49.1462 3.24312C49.7461 3.49307 50.2585 3.843 50.6834 4.29291C51.1083 4.74282 51.4395 5.28647 51.677 5.92384C51.9144 6.56122 52.0332 7.26733 52.0332 8.04218ZM49.1837 8.04218C49.1837 7.17985 49.0087 6.50498 48.6588 6.01757C48.3214 5.51767 47.834 5.26772 47.1966 5.26772C46.5592 5.26772 46.0656 5.51767 45.7156 6.01757C45.3657 6.50498 45.1907 7.17985 45.1907 8.04218C45.1907 8.90451 45.3657 9.59188 45.7156 10.1043C46.0656 10.6042 46.5592 10.8541 47.1966 10.8541C47.834 10.8541 48.3214 10.6042 48.6588 10.1043C49.0087 9.59188 49.1837 8.90451 49.1837 8.04218Z" fill="#FFF7F2"/>
<path d="M30.0453 31.7376C29.7204 30.4878 29.4267 29.0318 29.1642 27.3697C28.9018 25.695 28.7206 23.8641 28.6206 21.877H31.5075C31.52 22.3644 31.5388 22.9018 31.5638 23.4892C31.5888 24.0641 31.62 24.6452 31.6575 25.2326C31.695 25.82 31.7387 26.3948 31.7887 26.9572C31.8387 27.5071 31.8949 28.007 31.9574 28.4569C32.2324 28.082 32.5386 27.6196 32.876 27.0697C33.2259 26.5198 33.5634 25.9449 33.8883 25.3451C34.2132 24.7452 34.5132 24.1453 34.7881 23.5454C35.0631 22.933 35.2755 22.3769 35.4255 21.877H38.3874C38.0625 22.7643 37.6563 23.6766 37.1689 24.6139C36.694 25.5513 36.1816 26.4573 35.6317 27.3322C35.0818 28.207 34.5194 29.0256 33.9445 29.7879C33.3822 30.5503 32.8573 31.2002 32.3699 31.7376H30.0453Z" fill="#FFF7F2"/>
<path d="M40.5976 31.7376H37.8231L40.1664 21.877H42.9596L40.5976 31.7376ZM41.9473 20.6772C41.5599 20.6772 41.21 20.5647 40.8975 20.3398C40.5851 20.1023 40.4289 19.7461 40.4289 19.2712C40.4289 19.0088 40.4789 18.7651 40.5788 18.5401C40.6913 18.3027 40.8351 18.1027 41.01 17.9402C41.185 17.7653 41.3849 17.6278 41.6099 17.5278C41.8474 17.4278 42.0973 17.3779 42.3598 17.3779C42.7472 17.3779 43.0971 17.4966 43.4095 17.734C43.722 17.959 43.8782 18.3089 43.8782 18.7838C43.8782 19.0463 43.822 19.2962 43.7095 19.5337C43.6095 19.7586 43.472 19.9586 43.2971 20.1336C43.1221 20.296 42.9159 20.4273 42.6784 20.5272C42.4535 20.6272 42.2098 20.6772 41.9473 20.6772Z" fill="#FFF7F2"/>
<path d="M52.3741 27.4821C52.1991 28.1945 52.1492 28.9131 52.2241 29.638C52.2991 30.3503 52.4428 30.9877 52.6553 31.5501L50.162 31.9063C50.0871 31.7563 50.0183 31.6126 49.9558 31.4751C49.8933 31.3376 49.8309 31.1814 49.7684 31.0064C49.4184 31.2939 49.031 31.5313 48.6061 31.7188C48.1812 31.9063 47.7063 32 47.1814 32C46.5565 32 46.0191 31.8938 45.5692 31.6813C45.1318 31.4564 44.7693 31.1627 44.4819 30.8002C44.2069 30.4253 44.007 29.9941 43.882 29.5067C43.757 29.0068 43.6945 28.4757 43.6945 27.9133C43.6945 27.051 43.8445 26.2386 44.1445 25.4763C44.4569 24.7139 44.8818 24.0516 45.4192 23.4892C45.9691 22.9143 46.6127 22.4644 47.3501 22.1394C48.0874 21.8145 48.8873 21.652 49.7496 21.652C49.8621 21.652 50.0558 21.6583 50.3308 21.6708C50.6182 21.6833 50.9431 21.7145 51.3056 21.7645C51.668 21.802 52.0492 21.8707 52.4491 21.9707C52.849 22.0707 53.2302 22.2082 53.5926 22.3831L52.3741 27.4821ZM50.4245 24.0328C50.262 24.0078 50.112 23.9891 49.9746 23.9766C49.8496 23.9641 49.6934 23.9578 49.5059 23.9578C49.081 23.9578 48.6811 24.0641 48.3061 24.2765C47.9437 24.489 47.625 24.7702 47.3501 25.1201C47.0751 25.4575 46.8564 25.8512 46.694 26.3011C46.544 26.751 46.469 27.2197 46.469 27.7071C46.469 28.307 46.569 28.7819 46.769 29.1318C46.9689 29.4817 47.3376 29.6567 47.875 29.6567C48.1624 29.6567 48.4186 29.6005 48.6436 29.488C48.881 29.3755 49.131 29.1881 49.3934 28.9256C49.4184 28.6132 49.4559 28.2882 49.5059 27.9508C49.5684 27.6009 49.6309 27.2822 49.6934 26.9947L50.4245 24.0328Z" fill="#FFF7F2"/>
</svg>
