<svg width="54" height="32" viewBox="0 0 54 32" fill="none" xmlns="http://www.w3.org/2000/svg">
<path d="M11.1676 0V2.49326H7.24964V12.9912H4.32521V2.49326H0.407227V0H11.1676Z" fill="#5C280C"/>
<path d="M10.9813 8.13591C10.9813 7.26108 11.1126 6.49873 11.375 5.84886C11.65 5.18649 12.0061 4.63659 12.4435 4.19918C12.881 3.76177 13.3809 3.43058 13.9433 3.20562C14.5181 2.98067 15.1055 2.86819 15.7054 2.86819C17.1051 2.86819 18.2112 3.29936 19.0235 4.16169C19.8359 5.01152 20.242 6.26753 20.242 7.9297C20.242 8.09217 20.2358 8.27338 20.2233 8.47335C20.2108 8.66081 20.1983 8.82953 20.1858 8.9795H13.8495C13.912 9.55438 14.1807 10.0105 14.6556 10.348C15.1305 10.6854 15.7679 10.8541 16.5677 10.8541C17.0801 10.8541 17.58 10.8104 18.0674 10.7229C18.5674 10.6229 18.9735 10.5042 19.286 10.3667L19.6609 12.635C19.5109 12.71 19.311 12.785 19.061 12.86C18.8111 12.935 18.5299 12.9975 18.2174 13.0475C17.9175 13.1099 17.5925 13.1599 17.2426 13.1974C16.8927 13.2349 16.5427 13.2537 16.1928 13.2537C15.3055 13.2537 14.5306 13.1224 13.8683 12.86C13.2184 12.5975 12.6748 12.2414 12.2373 11.7914C11.8124 11.329 11.4937 10.7854 11.2813 10.1605C11.0813 9.53564 10.9813 8.86077 10.9813 8.13591ZM17.5426 7.06737C17.5301 6.82992 17.4863 6.59871 17.4113 6.37376C17.3488 6.1488 17.2426 5.94884 17.0926 5.77387C16.9552 5.59891 16.774 5.45518 16.549 5.34271C16.3365 5.23023 16.0678 5.17399 15.7429 5.17399C15.4305 5.17399 15.1618 5.23023 14.9368 5.34271C14.7119 5.44269 14.5244 5.58016 14.3744 5.75513C14.2245 5.93009 14.1057 6.1363 14.0182 6.37376C13.9433 6.59871 13.887 6.82992 13.8495 7.06737H17.5426Z" fill="#5C280C"/>
<path d="M21.9289 8.06093C21.9289 7.34857 22.0414 6.67995 22.2663 6.05507C22.5038 5.41769 22.8412 4.8678 23.2786 4.40539C23.7161 3.93048 24.2472 3.55556 24.8721 3.28061C25.497 3.00566 26.2093 2.86819 27.0092 2.86819C27.5341 2.86819 28.0152 2.91818 28.4526 3.01816C28.89 3.10564 29.315 3.23687 29.7274 3.41183L29.1462 5.64265C28.8838 5.54267 28.5964 5.45518 28.2839 5.3802C27.9715 5.30521 27.6215 5.26772 27.2341 5.26772C26.4093 5.26772 25.7906 5.52392 25.3782 6.03632C24.9783 6.54872 24.7783 7.22359 24.7783 8.06093C24.7783 8.94825 24.9658 9.63562 25.3407 10.123C25.7282 10.6104 26.3968 10.8541 27.3466 10.8541C27.684 10.8541 28.0465 10.8229 28.4339 10.7604C28.8213 10.6979 29.1775 10.5979 29.5024 10.4605L29.8961 12.7475C29.5712 12.885 29.165 13.0037 28.6776 13.1037C28.1902 13.2037 27.6528 13.2537 27.0654 13.2537C26.1656 13.2537 25.3907 13.1224 24.7409 12.86C24.091 12.585 23.5536 12.2164 23.1287 11.754C22.7162 11.2915 22.4101 10.7479 22.2101 10.123C22.0226 9.48565 21.9289 8.79828 21.9289 8.06093Z" fill="#5C280C"/>
<path d="M31.7707 3.46807C32.2456 3.3306 32.858 3.20562 33.6079 3.09315C34.3577 2.96817 35.1451 2.90568 35.9699 2.90568C36.8072 2.90568 37.5009 3.01816 38.0508 3.24312C38.6131 3.45558 39.0568 3.76177 39.3817 4.16169C39.7067 4.56161 39.9379 5.03652 40.0754 5.58641C40.2128 6.1363 40.2816 6.74868 40.2816 7.42355V12.9912H37.4884V7.76098C37.4884 6.86116 37.3696 6.22378 37.1322 5.84886C36.8947 5.47393 36.4511 5.28647 35.8012 5.28647C35.6012 5.28647 35.3888 5.29897 35.1638 5.32396C34.9389 5.33646 34.7389 5.3552 34.5639 5.3802V12.9912H31.7707V3.46807Z" fill="#5C280C"/>
<path d="M52.033 8.04218C52.033 8.81703 51.9206 9.52939 51.6956 10.1793C51.4706 10.8166 51.1457 11.3665 50.7208 11.8289C50.2959 12.2789 49.7835 12.6288 49.1836 12.8787C48.5962 13.1287 47.9338 13.2537 47.1965 13.2537C46.4716 13.2537 45.8093 13.1287 45.2094 12.8787C44.622 12.6288 44.1158 12.2789 43.6909 11.8289C43.266 11.3665 42.9348 10.8166 42.6974 10.1793C42.4599 9.52939 42.3412 8.81703 42.3412 8.04218C42.3412 7.26733 42.4599 6.56122 42.6974 5.92384C42.9473 5.28647 43.2847 4.74282 43.7097 4.29291C44.1471 3.843 44.6595 3.49307 45.2469 3.24312C45.8467 2.99317 46.4966 2.86819 47.1965 2.86819C47.9088 2.86819 48.5587 2.99317 49.1461 3.24312C49.746 3.49307 50.2584 3.843 50.6833 4.29291C51.1082 4.74282 51.4394 5.28647 51.6769 5.92384C51.9143 6.56122 52.033 7.26733 52.033 8.04218ZM49.1836 8.04218C49.1836 7.17985 49.0086 6.50498 48.6587 6.01757C48.3213 5.51767 47.8339 5.26772 47.1965 5.26772C46.5591 5.26772 46.0654 5.51767 45.7155 6.01757C45.3656 6.50498 45.1906 7.17985 45.1906 8.04218C45.1906 8.90451 45.3656 9.59188 45.7155 10.1043C46.0654 10.6042 46.5591 10.8541 47.1965 10.8541C47.8339 10.8541 48.3213 10.6042 48.6587 10.1043C49.0086 9.59188 49.1836 8.90451 49.1836 8.04218Z" fill="#5C280C"/>
<path d="M30.0452 31.7376C29.7203 30.4878 29.4266 29.0318 29.1641 27.3697C28.9017 25.695 28.7204 23.8641 28.6205 21.877H31.5074C31.5199 22.3644 31.5386 22.9018 31.5636 23.4892C31.5886 24.0641 31.6199 24.6452 31.6574 25.2326C31.6949 25.82 31.7386 26.3948 31.7886 26.9572C31.8386 27.5071 31.8948 28.007 31.9573 28.4569C32.2323 28.082 32.5385 27.6196 32.8759 27.0697C33.2258 26.5198 33.5633 25.9449 33.8882 25.3451C34.2131 24.7452 34.5131 24.1453 34.788 23.5454C35.063 22.933 35.2754 22.3769 35.4254 21.877H38.3873C38.0624 22.7643 37.6562 23.6766 37.1688 24.6139C36.6939 25.5513 36.1815 26.4573 35.6316 27.3322C35.0817 28.207 34.5193 29.0256 33.9444 29.7879C33.382 30.5503 32.8571 31.2002 32.3697 31.7376H30.0452Z" fill="#5C280C"/>
<path d="M40.5975 31.7376H37.823L40.1663 21.877H42.9595L40.5975 31.7376ZM41.9472 20.6772C41.5598 20.6772 41.2099 20.5647 40.8974 20.3398C40.585 20.1023 40.4288 19.7461 40.4288 19.2712C40.4288 19.0088 40.4787 18.7651 40.5787 18.5401C40.6912 18.3027 40.8349 18.1027 41.0099 17.9402C41.1849 17.7653 41.3848 17.6278 41.6098 17.5278C41.8472 17.4278 42.0972 17.3779 42.3596 17.3779C42.7471 17.3779 43.097 17.4966 43.4094 17.734C43.7219 17.959 43.8781 18.3089 43.8781 18.7838C43.8781 19.0463 43.8218 19.2962 43.7094 19.5337C43.6094 19.7586 43.4719 19.9586 43.2969 20.1336C43.122 20.296 42.9158 20.4273 42.6783 20.5272C42.4534 20.6272 42.2097 20.6772 41.9472 20.6772Z" fill="#5C280C"/>
<path d="M52.374 27.4821C52.199 28.1945 52.149 28.9131 52.224 29.638C52.299 30.3503 52.4427 30.9877 52.6552 31.5501L50.1619 31.9063C50.0869 31.7563 50.0182 31.6126 49.9557 31.4751C49.8932 31.3376 49.8307 31.1814 49.7682 31.0064C49.4183 31.2939 49.0309 31.5313 48.606 31.7188C48.1811 31.9063 47.7061 32 47.1812 32C46.5564 32 46.019 31.8938 45.5691 31.6813C45.1316 31.4564 44.7692 31.1627 44.4818 30.8002C44.2068 30.4253 44.0069 29.9941 43.8819 29.5067C43.7569 29.0068 43.6944 28.4757 43.6944 27.9133C43.6944 27.051 43.8444 26.2386 44.1443 25.4763C44.4568 24.7139 44.8817 24.0516 45.4191 23.4892C45.969 22.9143 46.6126 22.4644 47.35 22.1394C48.0873 21.8145 48.8872 21.652 49.7495 21.652C49.862 21.652 50.0557 21.6583 50.3306 21.6708C50.6181 21.6833 50.943 21.7145 51.3054 21.7645C51.6679 21.802 52.049 21.8707 52.449 21.9707C52.8489 22.0707 53.2301 22.2082 53.5925 22.3831L52.374 27.4821ZM50.4244 24.0328C50.2619 24.0078 50.1119 23.9891 49.9745 23.9766C49.8495 23.9641 49.6933 23.9578 49.5058 23.9578C49.0809 23.9578 48.681 24.0641 48.306 24.2765C47.9436 24.489 47.6249 24.7702 47.35 25.1201C47.075 25.4575 46.8563 25.8512 46.6938 26.3011C46.5439 26.751 46.4689 27.2197 46.4689 27.7071C46.4689 28.307 46.5689 28.7819 46.7688 29.1318C46.9688 29.4817 47.3375 29.6567 47.8749 29.6567C48.1623 29.6567 48.4185 29.6005 48.6435 29.488C48.8809 29.3755 49.1309 29.1881 49.3933 28.9256C49.4183 28.6132 49.4558 28.2882 49.5058 27.9508C49.5683 27.6009 49.6308 27.2822 49.6933 26.9947L50.4244 24.0328Z" fill="#5C280C"/>
</svg>
